<mxfile host="app.diagrams.net" modified="2023-03-26T17:41:56.452Z" agent="Mozilla/5.0 (Windows NT 10.0; Win64; x64) AppleWebKit/537.36 (KHTML, like Gecko) Chrome/111.0.0.0 Safari/537.36" etag="8EoaQCILvBq5-6MO7CVK" version="21.1.1" type="device">
  <diagram id="R2lEEEUBdFMjLlhIrx00" name="Page-1">
    <mxGraphModel dx="1313" dy="698" grid="0" gridSize="10" guides="1" tooltips="1" connect="1" arrows="1" fold="1" page="0" pageScale="1" pageWidth="850" pageHeight="1100" math="0" shadow="0" extFonts="Permanent Marker^https://fonts.googleapis.com/css?family=Permanent+Marker">
      <root>
        <mxCell id="0" />
        <mxCell id="1" parent="0" />
        <mxCell id="I6zElXgZEDLd3gUoQ3DE-26" value="PatientProcedureDim" style="shape=table;startSize=30;container=1;collapsible=1;childLayout=tableLayout;fixedRows=1;rowLines=0;fontStyle=1;align=center;resizeLast=1;fillColor=#1ba1e2;fontColor=#ffffff;strokeColor=#006EAF;" parent="1" vertex="1">
          <mxGeometry x="339" y="89" width="250" height="150" as="geometry" />
        </mxCell>
        <mxCell id="I6zElXgZEDLd3gUoQ3DE-27" value="" style="shape=partialRectangle;collapsible=0;dropTarget=0;pointerEvents=0;fillColor=none;points=[[0,0.5],[1,0.5]];portConstraint=eastwest;top=0;left=0;right=0;bottom=1;" parent="I6zElXgZEDLd3gUoQ3DE-26" vertex="1">
          <mxGeometry y="30" width="250" height="30" as="geometry" />
        </mxCell>
        <mxCell id="I6zElXgZEDLd3gUoQ3DE-28" value="PK" style="shape=partialRectangle;overflow=hidden;connectable=0;fillColor=#b1ddf0;top=0;left=0;bottom=0;right=0;fontStyle=1;strokeColor=#10739e;" parent="I6zElXgZEDLd3gUoQ3DE-27" vertex="1">
          <mxGeometry width="30" height="30" as="geometry">
            <mxRectangle width="30" height="30" as="alternateBounds" />
          </mxGeometry>
        </mxCell>
        <mxCell id="I6zElXgZEDLd3gUoQ3DE-29" value="pr_id varchar(20) NOT NULL " style="shape=partialRectangle;overflow=hidden;connectable=0;fillColor=#b1ddf0;top=0;left=0;bottom=0;right=0;align=left;spacingLeft=6;fontStyle=5;strokeColor=#10739e;" parent="I6zElXgZEDLd3gUoQ3DE-27" vertex="1">
          <mxGeometry x="30" width="220" height="30" as="geometry">
            <mxRectangle width="220" height="30" as="alternateBounds" />
          </mxGeometry>
        </mxCell>
        <mxCell id="I6zElXgZEDLd3gUoQ3DE-30" value="" style="shape=partialRectangle;collapsible=0;dropTarget=0;pointerEvents=0;fillColor=none;points=[[0,0.5],[1,0.5]];portConstraint=eastwest;top=0;left=0;right=0;bottom=0;" parent="I6zElXgZEDLd3gUoQ3DE-26" vertex="1">
          <mxGeometry y="60" width="250" height="30" as="geometry" />
        </mxCell>
        <mxCell id="I6zElXgZEDLd3gUoQ3DE-31" value="" style="shape=partialRectangle;overflow=hidden;connectable=0;fillColor=#b1ddf0;top=0;left=0;bottom=0;right=0;strokeColor=#10739e;" parent="I6zElXgZEDLd3gUoQ3DE-30" vertex="1">
          <mxGeometry width="30" height="30" as="geometry">
            <mxRectangle width="30" height="30" as="alternateBounds" />
          </mxGeometry>
        </mxCell>
        <mxCell id="I6zElXgZEDLd3gUoQ3DE-32" value="name varchar(150) NOT NULL" style="shape=partialRectangle;overflow=hidden;connectable=0;fillColor=#b1ddf0;top=0;left=0;bottom=0;right=0;align=left;spacingLeft=6;strokeColor=#10739e;" parent="I6zElXgZEDLd3gUoQ3DE-30" vertex="1">
          <mxGeometry x="30" width="220" height="30" as="geometry">
            <mxRectangle width="220" height="30" as="alternateBounds" />
          </mxGeometry>
        </mxCell>
        <mxCell id="I6zElXgZEDLd3gUoQ3DE-36" style="shape=partialRectangle;collapsible=0;dropTarget=0;pointerEvents=0;fillColor=none;points=[[0,0.5],[1,0.5]];portConstraint=eastwest;top=0;left=0;right=0;bottom=0;" parent="I6zElXgZEDLd3gUoQ3DE-26" vertex="1">
          <mxGeometry y="90" width="250" height="30" as="geometry" />
        </mxCell>
        <mxCell id="I6zElXgZEDLd3gUoQ3DE-37" style="shape=partialRectangle;overflow=hidden;connectable=0;fillColor=#b1ddf0;top=0;left=0;bottom=0;right=0;strokeColor=#10739e;" parent="I6zElXgZEDLd3gUoQ3DE-36" vertex="1">
          <mxGeometry width="30" height="30" as="geometry">
            <mxRectangle width="30" height="30" as="alternateBounds" />
          </mxGeometry>
        </mxCell>
        <mxCell id="I6zElXgZEDLd3gUoQ3DE-38" value="type varchar(50)" style="shape=partialRectangle;overflow=hidden;connectable=0;fillColor=#b1ddf0;top=0;left=0;bottom=0;right=0;align=left;spacingLeft=6;strokeColor=#10739e;" parent="I6zElXgZEDLd3gUoQ3DE-36" vertex="1">
          <mxGeometry x="30" width="220" height="30" as="geometry">
            <mxRectangle width="220" height="30" as="alternateBounds" />
          </mxGeometry>
        </mxCell>
        <mxCell id="I6zElXgZEDLd3gUoQ3DE-39" style="shape=partialRectangle;collapsible=0;dropTarget=0;pointerEvents=0;fillColor=none;points=[[0,0.5],[1,0.5]];portConstraint=eastwest;top=0;left=0;right=0;bottom=0;" parent="I6zElXgZEDLd3gUoQ3DE-26" vertex="1">
          <mxGeometry y="120" width="250" height="30" as="geometry" />
        </mxCell>
        <mxCell id="I6zElXgZEDLd3gUoQ3DE-40" style="shape=partialRectangle;overflow=hidden;connectable=0;fillColor=#b1ddf0;top=0;left=0;bottom=0;right=0;strokeColor=#10739e;" parent="I6zElXgZEDLd3gUoQ3DE-39" vertex="1">
          <mxGeometry width="30" height="30" as="geometry">
            <mxRectangle width="30" height="30" as="alternateBounds" />
          </mxGeometry>
        </mxCell>
        <mxCell id="I6zElXgZEDLd3gUoQ3DE-41" value="price Numeric" style="shape=partialRectangle;overflow=hidden;connectable=0;fillColor=#b1ddf0;top=0;left=0;bottom=0;right=0;align=left;spacingLeft=6;strokeColor=#10739e;" parent="I6zElXgZEDLd3gUoQ3DE-39" vertex="1">
          <mxGeometry x="30" width="220" height="30" as="geometry">
            <mxRectangle width="220" height="30" as="alternateBounds" />
          </mxGeometry>
        </mxCell>
        <mxCell id="I6zElXgZEDLd3gUoQ3DE-88" value="HealthFacilityDim" style="shape=table;startSize=30;container=1;collapsible=1;childLayout=tableLayout;fixedRows=1;rowLines=0;fontStyle=1;align=center;resizeLast=1;fillColor=#1ba1e2;fontColor=#ffffff;strokeColor=#006EAF;" parent="1" vertex="1">
          <mxGeometry x="279" y="289" width="350" height="270" as="geometry" />
        </mxCell>
        <mxCell id="U6otynBDtJ4fSCat0MDh-55" style="shape=partialRectangle;collapsible=0;dropTarget=0;pointerEvents=0;fillColor=none;points=[[0,0.5],[1,0.5]];portConstraint=eastwest;top=0;left=0;right=0;bottom=0;" parent="I6zElXgZEDLd3gUoQ3DE-88" vertex="1">
          <mxGeometry y="30" width="350" height="30" as="geometry" />
        </mxCell>
        <mxCell id="U6otynBDtJ4fSCat0MDh-56" value="PK" style="shape=partialRectangle;overflow=hidden;connectable=0;fillColor=#b1ddf0;top=0;left=0;bottom=0;right=0;strokeColor=#10739e;fontStyle=1" parent="U6otynBDtJ4fSCat0MDh-55" vertex="1">
          <mxGeometry width="30" height="30" as="geometry">
            <mxRectangle width="30" height="30" as="alternateBounds" />
          </mxGeometry>
        </mxCell>
        <mxCell id="U6otynBDtJ4fSCat0MDh-57" value="location_id int NOT NULL" style="shape=partialRectangle;overflow=hidden;connectable=0;fillColor=#b1ddf0;top=0;left=0;bottom=0;right=0;align=left;spacingLeft=6;strokeColor=#10739e;fontStyle=5" parent="U6otynBDtJ4fSCat0MDh-55" vertex="1">
          <mxGeometry x="30" width="320" height="30" as="geometry">
            <mxRectangle width="320" height="30" as="alternateBounds" />
          </mxGeometry>
        </mxCell>
        <mxCell id="U6otynBDtJ4fSCat0MDh-86" style="shape=partialRectangle;collapsible=0;dropTarget=0;pointerEvents=0;fillColor=none;points=[[0,0.5],[1,0.5]];portConstraint=eastwest;top=0;left=0;right=0;bottom=0;" parent="I6zElXgZEDLd3gUoQ3DE-88" vertex="1">
          <mxGeometry y="60" width="350" height="30" as="geometry" />
        </mxCell>
        <mxCell id="U6otynBDtJ4fSCat0MDh-87" value="PK" style="shape=partialRectangle;overflow=hidden;connectable=0;fillColor=#b1ddf0;top=0;left=0;bottom=0;right=0;strokeColor=#10739e;fontStyle=1" parent="U6otynBDtJ4fSCat0MDh-86" vertex="1">
          <mxGeometry width="30" height="30" as="geometry">
            <mxRectangle width="30" height="30" as="alternateBounds" />
          </mxGeometry>
        </mxCell>
        <mxCell id="U6otynBDtJ4fSCat0MDh-88" value="oshpd_id2 int NOT NULL" style="shape=partialRectangle;overflow=hidden;connectable=0;fillColor=#b1ddf0;top=0;left=0;bottom=0;right=0;align=left;spacingLeft=6;strokeColor=#10739e;fontStyle=5" parent="U6otynBDtJ4fSCat0MDh-86" vertex="1">
          <mxGeometry x="30" width="320" height="30" as="geometry">
            <mxRectangle width="320" height="30" as="alternateBounds" />
          </mxGeometry>
        </mxCell>
        <mxCell id="I6zElXgZEDLd3gUoQ3DE-95" value="" style="shape=partialRectangle;collapsible=0;dropTarget=0;pointerEvents=0;fillColor=none;points=[[0,0.5],[1,0.5]];portConstraint=eastwest;top=0;left=0;right=0;bottom=0;" parent="I6zElXgZEDLd3gUoQ3DE-88" vertex="1">
          <mxGeometry y="90" width="350" height="30" as="geometry" />
        </mxCell>
        <mxCell id="I6zElXgZEDLd3gUoQ3DE-96" value="" style="shape=partialRectangle;overflow=hidden;connectable=0;fillColor=#b1ddf0;top=0;left=0;bottom=0;right=0;strokeColor=#10739e;" parent="I6zElXgZEDLd3gUoQ3DE-95" vertex="1">
          <mxGeometry width="30" height="30" as="geometry">
            <mxRectangle width="30" height="30" as="alternateBounds" />
          </mxGeometry>
        </mxCell>
        <mxCell id="I6zElXgZEDLd3gUoQ3DE-97" value="name varchar(250)" style="shape=partialRectangle;overflow=hidden;connectable=0;fillColor=#b1ddf0;top=0;left=0;bottom=0;right=0;align=left;spacingLeft=6;strokeColor=#10739e;" parent="I6zElXgZEDLd3gUoQ3DE-95" vertex="1">
          <mxGeometry x="30" width="320" height="30" as="geometry">
            <mxRectangle width="320" height="30" as="alternateBounds" />
          </mxGeometry>
        </mxCell>
        <mxCell id="U6otynBDtJ4fSCat0MDh-70" style="shape=partialRectangle;collapsible=0;dropTarget=0;pointerEvents=0;fillColor=none;points=[[0,0.5],[1,0.5]];portConstraint=eastwest;top=0;left=0;right=0;bottom=0;" parent="I6zElXgZEDLd3gUoQ3DE-88" vertex="1">
          <mxGeometry y="120" width="350" height="30" as="geometry" />
        </mxCell>
        <mxCell id="U6otynBDtJ4fSCat0MDh-71" style="shape=partialRectangle;overflow=hidden;connectable=0;fillColor=#b1ddf0;top=0;left=0;bottom=0;right=0;strokeColor=#10739e;" parent="U6otynBDtJ4fSCat0MDh-70" vertex="1">
          <mxGeometry width="30" height="30" as="geometry">
            <mxRectangle width="30" height="30" as="alternateBounds" />
          </mxGeometry>
        </mxCell>
        <mxCell id="U6otynBDtJ4fSCat0MDh-72" value="city varchar(150) NOT NULL" style="shape=partialRectangle;overflow=hidden;connectable=0;fillColor=#b1ddf0;top=0;left=0;bottom=0;right=0;align=left;spacingLeft=6;strokeColor=#10739e;" parent="U6otynBDtJ4fSCat0MDh-70" vertex="1">
          <mxGeometry x="30" width="320" height="30" as="geometry">
            <mxRectangle width="320" height="30" as="alternateBounds" />
          </mxGeometry>
        </mxCell>
        <mxCell id="U6otynBDtJ4fSCat0MDh-67" style="shape=partialRectangle;collapsible=0;dropTarget=0;pointerEvents=0;fillColor=none;points=[[0,0.5],[1,0.5]];portConstraint=eastwest;top=0;left=0;right=0;bottom=0;" parent="I6zElXgZEDLd3gUoQ3DE-88" vertex="1">
          <mxGeometry y="150" width="350" height="30" as="geometry" />
        </mxCell>
        <mxCell id="U6otynBDtJ4fSCat0MDh-68" style="shape=partialRectangle;overflow=hidden;connectable=0;fillColor=#b1ddf0;top=0;left=0;bottom=0;right=0;strokeColor=#10739e;" parent="U6otynBDtJ4fSCat0MDh-67" vertex="1">
          <mxGeometry width="30" height="30" as="geometry">
            <mxRectangle width="30" height="30" as="alternateBounds" />
          </mxGeometry>
        </mxCell>
        <mxCell id="U6otynBDtJ4fSCat0MDh-69" value="county varchar(250)" style="shape=partialRectangle;overflow=hidden;connectable=0;fillColor=#b1ddf0;top=0;left=0;bottom=0;right=0;align=left;spacingLeft=6;strokeColor=#10739e;" parent="U6otynBDtJ4fSCat0MDh-67" vertex="1">
          <mxGeometry x="30" width="320" height="30" as="geometry">
            <mxRectangle width="320" height="30" as="alternateBounds" />
          </mxGeometry>
        </mxCell>
        <mxCell id="U6otynBDtJ4fSCat0MDh-64" style="shape=partialRectangle;collapsible=0;dropTarget=0;pointerEvents=0;fillColor=none;points=[[0,0.5],[1,0.5]];portConstraint=eastwest;top=0;left=0;right=0;bottom=0;" parent="I6zElXgZEDLd3gUoQ3DE-88" vertex="1">
          <mxGeometry y="180" width="350" height="30" as="geometry" />
        </mxCell>
        <mxCell id="U6otynBDtJ4fSCat0MDh-65" style="shape=partialRectangle;overflow=hidden;connectable=0;fillColor=#b1ddf0;top=0;left=0;bottom=0;right=0;strokeColor=#10739e;" parent="U6otynBDtJ4fSCat0MDh-64" vertex="1">
          <mxGeometry width="30" height="30" as="geometry">
            <mxRectangle width="30" height="30" as="alternateBounds" />
          </mxGeometry>
        </mxCell>
        <mxCell id="U6otynBDtJ4fSCat0MDh-66" value="address varchar(500) NOT NULL" style="shape=partialRectangle;overflow=hidden;connectable=0;fillColor=#b1ddf0;top=0;left=0;bottom=0;right=0;align=left;spacingLeft=6;strokeColor=#10739e;" parent="U6otynBDtJ4fSCat0MDh-64" vertex="1">
          <mxGeometry x="30" width="320" height="30" as="geometry">
            <mxRectangle width="320" height="30" as="alternateBounds" />
          </mxGeometry>
        </mxCell>
        <mxCell id="U6otynBDtJ4fSCat0MDh-61" style="shape=partialRectangle;collapsible=0;dropTarget=0;pointerEvents=0;fillColor=none;points=[[0,0.5],[1,0.5]];portConstraint=eastwest;top=0;left=0;right=0;bottom=0;" parent="I6zElXgZEDLd3gUoQ3DE-88" vertex="1">
          <mxGeometry y="210" width="350" height="30" as="geometry" />
        </mxCell>
        <mxCell id="U6otynBDtJ4fSCat0MDh-62" style="shape=partialRectangle;overflow=hidden;connectable=0;fillColor=#b1ddf0;top=0;left=0;bottom=0;right=0;strokeColor=#10739e;" parent="U6otynBDtJ4fSCat0MDh-61" vertex="1">
          <mxGeometry width="30" height="30" as="geometry">
            <mxRectangle width="30" height="30" as="alternateBounds" />
          </mxGeometry>
        </mxCell>
        <mxCell id="U6otynBDtJ4fSCat0MDh-63" value="zip_code VARCHAR(15)" style="shape=partialRectangle;overflow=hidden;connectable=0;fillColor=#b1ddf0;top=0;left=0;bottom=0;right=0;align=left;spacingLeft=6;strokeColor=#10739e;" parent="U6otynBDtJ4fSCat0MDh-61" vertex="1">
          <mxGeometry x="30" width="320" height="30" as="geometry">
            <mxRectangle width="320" height="30" as="alternateBounds" />
          </mxGeometry>
        </mxCell>
        <mxCell id="I6zElXgZEDLd3gUoQ3DE-110" style="shape=partialRectangle;collapsible=0;dropTarget=0;pointerEvents=0;fillColor=none;points=[[0,0.5],[1,0.5]];portConstraint=eastwest;top=0;left=0;right=0;bottom=0;" parent="I6zElXgZEDLd3gUoQ3DE-88" vertex="1">
          <mxGeometry y="240" width="350" height="30" as="geometry" />
        </mxCell>
        <mxCell id="I6zElXgZEDLd3gUoQ3DE-111" style="shape=partialRectangle;overflow=hidden;connectable=0;fillColor=#b1ddf0;top=0;left=0;bottom=0;right=0;strokeColor=#10739e;" parent="I6zElXgZEDLd3gUoQ3DE-110" vertex="1">
          <mxGeometry width="30" height="30" as="geometry">
            <mxRectangle width="30" height="30" as="alternateBounds" />
          </mxGeometry>
        </mxCell>
        <mxCell id="I6zElXgZEDLd3gUoQ3DE-112" value="license_type varchar(50) NOT NULL" style="shape=partialRectangle;overflow=hidden;connectable=0;fillColor=#b1ddf0;top=0;left=0;bottom=0;right=0;align=left;spacingLeft=6;strokeColor=#10739e;" parent="I6zElXgZEDLd3gUoQ3DE-110" vertex="1">
          <mxGeometry x="30" width="320" height="30" as="geometry">
            <mxRectangle width="320" height="30" as="alternateBounds" />
          </mxGeometry>
        </mxCell>
        <mxCell id="I6zElXgZEDLd3gUoQ3DE-116" value="PatientDim" style="shape=table;startSize=30;container=1;collapsible=1;childLayout=tableLayout;fixedRows=1;rowLines=0;fontStyle=1;align=center;resizeLast=1;fillColor=#1ba1e2;fontColor=#ffffff;strokeColor=#006EAF;" parent="1" vertex="1">
          <mxGeometry x="1059" y="79" width="250" height="450" as="geometry" />
        </mxCell>
        <mxCell id="I6zElXgZEDLd3gUoQ3DE-117" value="" style="shape=partialRectangle;collapsible=0;dropTarget=0;pointerEvents=0;fillColor=none;points=[[0,0.5],[1,0.5]];portConstraint=eastwest;top=0;left=0;right=0;bottom=1;" parent="I6zElXgZEDLd3gUoQ3DE-116" vertex="1">
          <mxGeometry y="30" width="250" height="30" as="geometry" />
        </mxCell>
        <mxCell id="I6zElXgZEDLd3gUoQ3DE-118" value="PK" style="shape=partialRectangle;overflow=hidden;connectable=0;fillColor=#b1ddf0;top=0;left=0;bottom=0;right=0;fontStyle=1;strokeColor=#10739e;" parent="I6zElXgZEDLd3gUoQ3DE-117" vertex="1">
          <mxGeometry width="30" height="30" as="geometry">
            <mxRectangle width="30" height="30" as="alternateBounds" />
          </mxGeometry>
        </mxCell>
        <mxCell id="I6zElXgZEDLd3gUoQ3DE-119" value="p_id varchar(30) NOT NULL " style="shape=partialRectangle;overflow=hidden;connectable=0;fillColor=#b1ddf0;top=0;left=0;bottom=0;right=0;align=left;spacingLeft=6;fontStyle=5;strokeColor=#10739e;" parent="I6zElXgZEDLd3gUoQ3DE-117" vertex="1">
          <mxGeometry x="30" width="220" height="30" as="geometry">
            <mxRectangle width="220" height="30" as="alternateBounds" />
          </mxGeometry>
        </mxCell>
        <mxCell id="I6zElXgZEDLd3gUoQ3DE-120" value="" style="shape=partialRectangle;collapsible=0;dropTarget=0;pointerEvents=0;fillColor=none;points=[[0,0.5],[1,0.5]];portConstraint=eastwest;top=0;left=0;right=0;bottom=0;" parent="I6zElXgZEDLd3gUoQ3DE-116" vertex="1">
          <mxGeometry y="60" width="250" height="30" as="geometry" />
        </mxCell>
        <mxCell id="I6zElXgZEDLd3gUoQ3DE-121" value="" style="shape=partialRectangle;overflow=hidden;connectable=0;fillColor=#b1ddf0;top=0;left=0;bottom=0;right=0;strokeColor=#10739e;" parent="I6zElXgZEDLd3gUoQ3DE-120" vertex="1">
          <mxGeometry width="30" height="30" as="geometry">
            <mxRectangle width="30" height="30" as="alternateBounds" />
          </mxGeometry>
        </mxCell>
        <mxCell id="I6zElXgZEDLd3gUoQ3DE-122" value="name varchar(150) NOT NULL" style="shape=partialRectangle;overflow=hidden;connectable=0;fillColor=#b1ddf0;top=0;left=0;bottom=0;right=0;align=left;spacingLeft=6;strokeColor=#10739e;" parent="I6zElXgZEDLd3gUoQ3DE-120" vertex="1">
          <mxGeometry x="30" width="220" height="30" as="geometry">
            <mxRectangle width="220" height="30" as="alternateBounds" />
          </mxGeometry>
        </mxCell>
        <mxCell id="U6otynBDtJ4fSCat0MDh-151" style="shape=partialRectangle;collapsible=0;dropTarget=0;pointerEvents=0;fillColor=none;points=[[0,0.5],[1,0.5]];portConstraint=eastwest;top=0;left=0;right=0;bottom=0;" parent="I6zElXgZEDLd3gUoQ3DE-116" vertex="1">
          <mxGeometry y="90" width="250" height="30" as="geometry" />
        </mxCell>
        <mxCell id="U6otynBDtJ4fSCat0MDh-152" style="shape=partialRectangle;overflow=hidden;connectable=0;fillColor=#b1ddf0;top=0;left=0;bottom=0;right=0;strokeColor=#10739e;" parent="U6otynBDtJ4fSCat0MDh-151" vertex="1">
          <mxGeometry width="30" height="30" as="geometry">
            <mxRectangle width="30" height="30" as="alternateBounds" />
          </mxGeometry>
        </mxCell>
        <mxCell id="U6otynBDtJ4fSCat0MDh-153" value="sex varchar(50) NOT NULL" style="shape=partialRectangle;overflow=hidden;connectable=0;fillColor=#b1ddf0;top=0;left=0;bottom=0;right=0;align=left;spacingLeft=6;strokeColor=#10739e;" parent="U6otynBDtJ4fSCat0MDh-151" vertex="1">
          <mxGeometry x="30" width="220" height="30" as="geometry">
            <mxRectangle width="220" height="30" as="alternateBounds" />
          </mxGeometry>
        </mxCell>
        <mxCell id="U6otynBDtJ4fSCat0MDh-148" style="shape=partialRectangle;collapsible=0;dropTarget=0;pointerEvents=0;fillColor=none;points=[[0,0.5],[1,0.5]];portConstraint=eastwest;top=0;left=0;right=0;bottom=0;" parent="I6zElXgZEDLd3gUoQ3DE-116" vertex="1">
          <mxGeometry y="120" width="250" height="30" as="geometry" />
        </mxCell>
        <mxCell id="U6otynBDtJ4fSCat0MDh-149" style="shape=partialRectangle;overflow=hidden;connectable=0;fillColor=#b1ddf0;top=0;left=0;bottom=0;right=0;strokeColor=#10739e;" parent="U6otynBDtJ4fSCat0MDh-148" vertex="1">
          <mxGeometry width="30" height="30" as="geometry">
            <mxRectangle width="30" height="30" as="alternateBounds" />
          </mxGeometry>
        </mxCell>
        <mxCell id="U6otynBDtJ4fSCat0MDh-150" value="race_group varchar(50)" style="shape=partialRectangle;overflow=hidden;connectable=0;fillColor=#b1ddf0;top=0;left=0;bottom=0;right=0;align=left;spacingLeft=6;strokeColor=#10739e;" parent="U6otynBDtJ4fSCat0MDh-148" vertex="1">
          <mxGeometry x="30" width="220" height="30" as="geometry">
            <mxRectangle width="220" height="30" as="alternateBounds" />
          </mxGeometry>
        </mxCell>
        <mxCell id="U6otynBDtJ4fSCat0MDh-145" style="shape=partialRectangle;collapsible=0;dropTarget=0;pointerEvents=0;fillColor=none;points=[[0,0.5],[1,0.5]];portConstraint=eastwest;top=0;left=0;right=0;bottom=0;" parent="I6zElXgZEDLd3gUoQ3DE-116" vertex="1">
          <mxGeometry y="150" width="250" height="30" as="geometry" />
        </mxCell>
        <mxCell id="U6otynBDtJ4fSCat0MDh-146" style="shape=partialRectangle;overflow=hidden;connectable=0;fillColor=#b1ddf0;top=0;left=0;bottom=0;right=0;strokeColor=#10739e;" parent="U6otynBDtJ4fSCat0MDh-145" vertex="1">
          <mxGeometry width="30" height="30" as="geometry">
            <mxRectangle width="30" height="30" as="alternateBounds" />
          </mxGeometry>
        </mxCell>
        <mxCell id="U6otynBDtJ4fSCat0MDh-147" value="age_group varchar(50) NOT NULL" style="shape=partialRectangle;overflow=hidden;connectable=0;fillColor=#b1ddf0;top=0;left=0;bottom=0;right=0;align=left;spacingLeft=6;strokeColor=#10739e;" parent="U6otynBDtJ4fSCat0MDh-145" vertex="1">
          <mxGeometry x="30" width="220" height="30" as="geometry">
            <mxRectangle width="220" height="30" as="alternateBounds" />
          </mxGeometry>
        </mxCell>
        <mxCell id="U6otynBDtJ4fSCat0MDh-160" style="shape=partialRectangle;collapsible=0;dropTarget=0;pointerEvents=0;fillColor=none;points=[[0,0.5],[1,0.5]];portConstraint=eastwest;top=0;left=0;right=0;bottom=0;" parent="I6zElXgZEDLd3gUoQ3DE-116" vertex="1">
          <mxGeometry y="180" width="250" height="30" as="geometry" />
        </mxCell>
        <mxCell id="U6otynBDtJ4fSCat0MDh-161" style="shape=partialRectangle;overflow=hidden;connectable=0;fillColor=#b1ddf0;top=0;left=0;bottom=0;right=0;strokeColor=#10739e;" parent="U6otynBDtJ4fSCat0MDh-160" vertex="1">
          <mxGeometry width="30" height="30" as="geometry">
            <mxRectangle width="30" height="30" as="alternateBounds" />
          </mxGeometry>
        </mxCell>
        <mxCell id="U6otynBDtJ4fSCat0MDh-162" value="language varchar(50) NOT NULL" style="shape=partialRectangle;overflow=hidden;connectable=0;fillColor=#b1ddf0;top=0;left=0;bottom=0;right=0;align=left;spacingLeft=6;strokeColor=#10739e;" parent="U6otynBDtJ4fSCat0MDh-160" vertex="1">
          <mxGeometry x="30" width="220" height="30" as="geometry">
            <mxRectangle width="220" height="30" as="alternateBounds" />
          </mxGeometry>
        </mxCell>
        <mxCell id="U6otynBDtJ4fSCat0MDh-157" style="shape=partialRectangle;collapsible=0;dropTarget=0;pointerEvents=0;fillColor=none;points=[[0,0.5],[1,0.5]];portConstraint=eastwest;top=0;left=0;right=0;bottom=0;" parent="I6zElXgZEDLd3gUoQ3DE-116" vertex="1">
          <mxGeometry y="210" width="250" height="30" as="geometry" />
        </mxCell>
        <mxCell id="U6otynBDtJ4fSCat0MDh-158" style="shape=partialRectangle;overflow=hidden;connectable=0;fillColor=#b1ddf0;top=0;left=0;bottom=0;right=0;strokeColor=#10739e;" parent="U6otynBDtJ4fSCat0MDh-157" vertex="1">
          <mxGeometry width="30" height="30" as="geometry">
            <mxRectangle width="30" height="30" as="alternateBounds" />
          </mxGeometry>
        </mxCell>
        <mxCell id="U6otynBDtJ4fSCat0MDh-159" value="payer_source varchar(50) NOT NULL" style="shape=partialRectangle;overflow=hidden;connectable=0;fillColor=#b1ddf0;top=0;left=0;bottom=0;right=0;align=left;spacingLeft=6;strokeColor=#10739e;" parent="U6otynBDtJ4fSCat0MDh-157" vertex="1">
          <mxGeometry x="30" width="220" height="30" as="geometry">
            <mxRectangle width="220" height="30" as="alternateBounds" />
          </mxGeometry>
        </mxCell>
        <mxCell id="U6otynBDtJ4fSCat0MDh-154" style="shape=partialRectangle;collapsible=0;dropTarget=0;pointerEvents=0;fillColor=none;points=[[0,0.5],[1,0.5]];portConstraint=eastwest;top=0;left=0;right=0;bottom=0;" parent="I6zElXgZEDLd3gUoQ3DE-116" vertex="1">
          <mxGeometry y="240" width="250" height="30" as="geometry" />
        </mxCell>
        <mxCell id="U6otynBDtJ4fSCat0MDh-155" style="shape=partialRectangle;overflow=hidden;connectable=0;fillColor=#b1ddf0;top=0;left=0;bottom=0;right=0;strokeColor=#10739e;" parent="U6otynBDtJ4fSCat0MDh-154" vertex="1">
          <mxGeometry width="30" height="30" as="geometry">
            <mxRectangle width="30" height="30" as="alternateBounds" />
          </mxGeometry>
        </mxCell>
        <mxCell id="U6otynBDtJ4fSCat0MDh-156" value="disposition varchar(150) NOT NULL" style="shape=partialRectangle;overflow=hidden;connectable=0;fillColor=#b1ddf0;top=0;left=0;bottom=0;right=0;align=left;spacingLeft=6;strokeColor=#10739e;" parent="U6otynBDtJ4fSCat0MDh-154" vertex="1">
          <mxGeometry x="30" width="220" height="30" as="geometry">
            <mxRectangle width="220" height="30" as="alternateBounds" />
          </mxGeometry>
        </mxCell>
        <mxCell id="I6zElXgZEDLd3gUoQ3DE-138" style="shape=partialRectangle;collapsible=0;dropTarget=0;pointerEvents=0;fillColor=none;points=[[0,0.5],[1,0.5]];portConstraint=eastwest;top=0;left=0;right=0;bottom=0;" parent="I6zElXgZEDLd3gUoQ3DE-116" vertex="1">
          <mxGeometry y="270" width="250" height="30" as="geometry" />
        </mxCell>
        <mxCell id="I6zElXgZEDLd3gUoQ3DE-139" style="shape=partialRectangle;overflow=hidden;connectable=0;fillColor=#b1ddf0;top=0;left=0;bottom=0;right=0;strokeColor=#10739e;" parent="I6zElXgZEDLd3gUoQ3DE-138" vertex="1">
          <mxGeometry width="30" height="30" as="geometry">
            <mxRectangle width="30" height="30" as="alternateBounds" />
          </mxGeometry>
        </mxCell>
        <mxCell id="I6zElXgZEDLd3gUoQ3DE-140" value="social_security_num char(11)" style="shape=partialRectangle;overflow=hidden;connectable=0;fillColor=#b1ddf0;top=0;left=0;bottom=0;right=0;align=left;spacingLeft=6;strokeColor=#10739e;" parent="I6zElXgZEDLd3gUoQ3DE-138" vertex="1">
          <mxGeometry x="30" width="220" height="30" as="geometry">
            <mxRectangle width="220" height="30" as="alternateBounds" />
          </mxGeometry>
        </mxCell>
        <mxCell id="I6zElXgZEDLd3gUoQ3DE-144" style="shape=partialRectangle;collapsible=0;dropTarget=0;pointerEvents=0;fillColor=none;points=[[0,0.5],[1,0.5]];portConstraint=eastwest;top=0;left=0;right=0;bottom=0;" parent="I6zElXgZEDLd3gUoQ3DE-116" vertex="1">
          <mxGeometry y="300" width="250" height="30" as="geometry" />
        </mxCell>
        <mxCell id="I6zElXgZEDLd3gUoQ3DE-145" style="shape=partialRectangle;overflow=hidden;connectable=0;fillColor=#b1ddf0;top=0;left=0;bottom=0;right=0;strokeColor=#10739e;" parent="I6zElXgZEDLd3gUoQ3DE-144" vertex="1">
          <mxGeometry width="30" height="30" as="geometry">
            <mxRectangle width="30" height="30" as="alternateBounds" />
          </mxGeometry>
        </mxCell>
        <mxCell id="I6zElXgZEDLd3gUoQ3DE-146" value="date_of_birth date NOT NULL" style="shape=partialRectangle;overflow=hidden;connectable=0;fillColor=#b1ddf0;top=0;left=0;bottom=0;right=0;align=left;spacingLeft=6;strokeColor=#10739e;" parent="I6zElXgZEDLd3gUoQ3DE-144" vertex="1">
          <mxGeometry x="30" width="220" height="30" as="geometry">
            <mxRectangle width="220" height="30" as="alternateBounds" />
          </mxGeometry>
        </mxCell>
        <mxCell id="I6zElXgZEDLd3gUoQ3DE-141" style="shape=partialRectangle;collapsible=0;dropTarget=0;pointerEvents=0;fillColor=none;points=[[0,0.5],[1,0.5]];portConstraint=eastwest;top=0;left=0;right=0;bottom=0;" parent="I6zElXgZEDLd3gUoQ3DE-116" vertex="1">
          <mxGeometry y="330" width="250" height="30" as="geometry" />
        </mxCell>
        <mxCell id="I6zElXgZEDLd3gUoQ3DE-142" style="shape=partialRectangle;overflow=hidden;connectable=0;fillColor=#b1ddf0;top=0;left=0;bottom=0;right=0;strokeColor=#10739e;" parent="I6zElXgZEDLd3gUoQ3DE-141" vertex="1">
          <mxGeometry width="30" height="30" as="geometry">
            <mxRectangle width="30" height="30" as="alternateBounds" />
          </mxGeometry>
        </mxCell>
        <mxCell id="I6zElXgZEDLd3gUoQ3DE-143" value="credit_card_number varchar(30)" style="shape=partialRectangle;overflow=hidden;connectable=0;fillColor=#b1ddf0;top=0;left=0;bottom=0;right=0;align=left;spacingLeft=6;strokeColor=#10739e;" parent="I6zElXgZEDLd3gUoQ3DE-141" vertex="1">
          <mxGeometry x="30" width="220" height="30" as="geometry">
            <mxRectangle width="220" height="30" as="alternateBounds" />
          </mxGeometry>
        </mxCell>
        <mxCell id="I6zElXgZEDLd3gUoQ3DE-135" style="shape=partialRectangle;collapsible=0;dropTarget=0;pointerEvents=0;fillColor=none;points=[[0,0.5],[1,0.5]];portConstraint=eastwest;top=0;left=0;right=0;bottom=0;" parent="I6zElXgZEDLd3gUoQ3DE-116" vertex="1">
          <mxGeometry y="360" width="250" height="30" as="geometry" />
        </mxCell>
        <mxCell id="I6zElXgZEDLd3gUoQ3DE-136" style="shape=partialRectangle;overflow=hidden;connectable=0;fillColor=#b1ddf0;top=0;left=0;bottom=0;right=0;strokeColor=#10739e;" parent="I6zElXgZEDLd3gUoQ3DE-135" vertex="1">
          <mxGeometry width="30" height="30" as="geometry">
            <mxRectangle width="30" height="30" as="alternateBounds" />
          </mxGeometry>
        </mxCell>
        <mxCell id="I6zElXgZEDLd3gUoQ3DE-137" value="address varchar(500)" style="shape=partialRectangle;overflow=hidden;connectable=0;fillColor=#b1ddf0;top=0;left=0;bottom=0;right=0;align=left;spacingLeft=6;strokeColor=#10739e;" parent="I6zElXgZEDLd3gUoQ3DE-135" vertex="1">
          <mxGeometry x="30" width="220" height="30" as="geometry">
            <mxRectangle width="220" height="30" as="alternateBounds" />
          </mxGeometry>
        </mxCell>
        <mxCell id="I6zElXgZEDLd3gUoQ3DE-132" style="shape=partialRectangle;collapsible=0;dropTarget=0;pointerEvents=0;fillColor=none;points=[[0,0.5],[1,0.5]];portConstraint=eastwest;top=0;left=0;right=0;bottom=0;" parent="I6zElXgZEDLd3gUoQ3DE-116" vertex="1">
          <mxGeometry y="390" width="250" height="30" as="geometry" />
        </mxCell>
        <mxCell id="I6zElXgZEDLd3gUoQ3DE-133" style="shape=partialRectangle;overflow=hidden;connectable=0;fillColor=#b1ddf0;top=0;left=0;bottom=0;right=0;strokeColor=#10739e;" parent="I6zElXgZEDLd3gUoQ3DE-132" vertex="1">
          <mxGeometry width="30" height="30" as="geometry">
            <mxRectangle width="30" height="30" as="alternateBounds" />
          </mxGeometry>
        </mxCell>
        <mxCell id="I6zElXgZEDLd3gUoQ3DE-134" value="state varchar(100)" style="shape=partialRectangle;overflow=hidden;connectable=0;fillColor=#b1ddf0;top=0;left=0;bottom=0;right=0;align=left;spacingLeft=6;strokeColor=#10739e;" parent="I6zElXgZEDLd3gUoQ3DE-132" vertex="1">
          <mxGeometry x="30" width="220" height="30" as="geometry">
            <mxRectangle width="220" height="30" as="alternateBounds" />
          </mxGeometry>
        </mxCell>
        <mxCell id="I6zElXgZEDLd3gUoQ3DE-150" style="shape=partialRectangle;collapsible=0;dropTarget=0;pointerEvents=0;fillColor=none;points=[[0,0.5],[1,0.5]];portConstraint=eastwest;top=0;left=0;right=0;bottom=0;" parent="I6zElXgZEDLd3gUoQ3DE-116" vertex="1">
          <mxGeometry y="420" width="250" height="30" as="geometry" />
        </mxCell>
        <mxCell id="I6zElXgZEDLd3gUoQ3DE-151" style="shape=partialRectangle;overflow=hidden;connectable=0;fillColor=#b1ddf0;top=0;left=0;bottom=0;right=0;strokeColor=#10739e;" parent="I6zElXgZEDLd3gUoQ3DE-150" vertex="1">
          <mxGeometry width="30" height="30" as="geometry">
            <mxRectangle width="30" height="30" as="alternateBounds" />
          </mxGeometry>
        </mxCell>
        <mxCell id="I6zElXgZEDLd3gUoQ3DE-152" value="city varchar(150)" style="shape=partialRectangle;overflow=hidden;connectable=0;fillColor=#b1ddf0;top=0;left=0;bottom=0;right=0;align=left;spacingLeft=6;strokeColor=#10739e;" parent="I6zElXgZEDLd3gUoQ3DE-150" vertex="1">
          <mxGeometry x="30" width="220" height="30" as="geometry">
            <mxRectangle width="220" height="30" as="alternateBounds" />
          </mxGeometry>
        </mxCell>
        <mxCell id="I6zElXgZEDLd3gUoQ3DE-241" value="" style="edgeStyle=elbowEdgeStyle;endArrow=ERzeroToMany;startArrow=ERone;endFill=1;startFill=0;exitX=1;exitY=0.5;exitDx=0;exitDy=0;entryX=0;entryY=0.5;entryDx=0;entryDy=0;" parent="1" source="I6zElXgZEDLd3gUoQ3DE-27" target="U6otynBDtJ4fSCat0MDh-8" edge="1">
          <mxGeometry width="100" height="100" relative="1" as="geometry">
            <mxPoint x="-161" y="269" as="sourcePoint" />
            <mxPoint x="429" y="359" as="targetPoint" />
            <Array as="points">
              <mxPoint x="669" y="269" />
            </Array>
          </mxGeometry>
        </mxCell>
        <mxCell id="I6zElXgZEDLd3gUoQ3DE-249" value="" style="edgeStyle=elbowEdgeStyle;endArrow=ERzeroToMany;startArrow=ERone;endFill=1;startFill=0;entryX=1;entryY=0.5;entryDx=0;entryDy=0;exitX=0;exitY=0.5;exitDx=0;exitDy=0;" parent="1" source="I6zElXgZEDLd3gUoQ3DE-117" target="U6otynBDtJ4fSCat0MDh-5" edge="1">
          <mxGeometry width="100" height="100" relative="1" as="geometry">
            <mxPoint x="-221" y="239" as="sourcePoint" />
            <mxPoint x="-401" y="239" as="targetPoint" />
            <Array as="points">
              <mxPoint x="1019" y="249" />
            </Array>
          </mxGeometry>
        </mxCell>
        <mxCell id="NK5w_5Fr2Y1bBtqfcdcF-1" value="EmployeeDim" style="shape=table;startSize=30;container=1;collapsible=1;childLayout=tableLayout;fixedRows=1;rowLines=0;fontStyle=1;align=center;resizeLast=1;fillColor=#1ba1e2;fontColor=#ffffff;strokeColor=#006EAF;" parent="1" vertex="1">
          <mxGeometry x="1029" y="599" width="250" height="270" as="geometry" />
        </mxCell>
        <mxCell id="NK5w_5Fr2Y1bBtqfcdcF-2" value="" style="shape=partialRectangle;collapsible=0;dropTarget=0;pointerEvents=0;fillColor=none;points=[[0,0.5],[1,0.5]];portConstraint=eastwest;top=0;left=0;right=0;bottom=1;" parent="NK5w_5Fr2Y1bBtqfcdcF-1" vertex="1">
          <mxGeometry y="30" width="250" height="30" as="geometry" />
        </mxCell>
        <mxCell id="NK5w_5Fr2Y1bBtqfcdcF-3" value="PK" style="shape=partialRectangle;overflow=hidden;connectable=0;fillColor=#b1ddf0;top=0;left=0;bottom=0;right=0;fontStyle=1;strokeColor=#10739e;" parent="NK5w_5Fr2Y1bBtqfcdcF-2" vertex="1">
          <mxGeometry width="30" height="30" as="geometry">
            <mxRectangle width="30" height="30" as="alternateBounds" />
          </mxGeometry>
        </mxCell>
        <mxCell id="NK5w_5Fr2Y1bBtqfcdcF-4" value="emp_id varchar(30) NOT NULL " style="shape=partialRectangle;overflow=hidden;connectable=0;fillColor=#b1ddf0;top=0;left=0;bottom=0;right=0;align=left;spacingLeft=6;fontStyle=5;strokeColor=#10739e;" parent="NK5w_5Fr2Y1bBtqfcdcF-2" vertex="1">
          <mxGeometry x="30" width="220" height="30" as="geometry">
            <mxRectangle width="220" height="30" as="alternateBounds" />
          </mxGeometry>
        </mxCell>
        <mxCell id="NK5w_5Fr2Y1bBtqfcdcF-5" value="" style="shape=partialRectangle;collapsible=0;dropTarget=0;pointerEvents=0;fillColor=none;points=[[0,0.5],[1,0.5]];portConstraint=eastwest;top=0;left=0;right=0;bottom=0;" parent="NK5w_5Fr2Y1bBtqfcdcF-1" vertex="1">
          <mxGeometry y="60" width="250" height="30" as="geometry" />
        </mxCell>
        <mxCell id="NK5w_5Fr2Y1bBtqfcdcF-6" value="" style="shape=partialRectangle;overflow=hidden;connectable=0;fillColor=#b1ddf0;top=0;left=0;bottom=0;right=0;strokeColor=#10739e;" parent="NK5w_5Fr2Y1bBtqfcdcF-5" vertex="1">
          <mxGeometry width="30" height="30" as="geometry">
            <mxRectangle width="30" height="30" as="alternateBounds" />
          </mxGeometry>
        </mxCell>
        <mxCell id="NK5w_5Fr2Y1bBtqfcdcF-7" value="emp_name varchar(150) NOT NULL" style="shape=partialRectangle;overflow=hidden;connectable=0;fillColor=#b1ddf0;top=0;left=0;bottom=0;right=0;align=left;spacingLeft=6;strokeColor=#10739e;" parent="NK5w_5Fr2Y1bBtqfcdcF-5" vertex="1">
          <mxGeometry x="30" width="220" height="30" as="geometry">
            <mxRectangle width="220" height="30" as="alternateBounds" />
          </mxGeometry>
        </mxCell>
        <mxCell id="NK5w_5Fr2Y1bBtqfcdcF-8" value="" style="shape=partialRectangle;collapsible=0;dropTarget=0;pointerEvents=0;fillColor=none;points=[[0,0.5],[1,0.5]];portConstraint=eastwest;top=0;left=0;right=0;bottom=0;" parent="NK5w_5Fr2Y1bBtqfcdcF-1" vertex="1">
          <mxGeometry y="90" width="250" height="30" as="geometry" />
        </mxCell>
        <mxCell id="NK5w_5Fr2Y1bBtqfcdcF-9" value="" style="shape=partialRectangle;overflow=hidden;connectable=0;fillColor=#b1ddf0;top=0;left=0;bottom=0;right=0;strokeColor=#10739e;" parent="NK5w_5Fr2Y1bBtqfcdcF-8" vertex="1">
          <mxGeometry width="30" height="30" as="geometry">
            <mxRectangle width="30" height="30" as="alternateBounds" />
          </mxGeometry>
        </mxCell>
        <mxCell id="NK5w_5Fr2Y1bBtqfcdcF-10" value="emp_dob DATE" style="shape=partialRectangle;overflow=hidden;connectable=0;fillColor=#b1ddf0;top=0;left=0;bottom=0;right=0;align=left;spacingLeft=6;strokeColor=#10739e;" parent="NK5w_5Fr2Y1bBtqfcdcF-8" vertex="1">
          <mxGeometry x="30" width="220" height="30" as="geometry">
            <mxRectangle width="220" height="30" as="alternateBounds" />
          </mxGeometry>
        </mxCell>
        <mxCell id="NK5w_5Fr2Y1bBtqfcdcF-11" style="shape=partialRectangle;collapsible=0;dropTarget=0;pointerEvents=0;fillColor=none;points=[[0,0.5],[1,0.5]];portConstraint=eastwest;top=0;left=0;right=0;bottom=0;" parent="NK5w_5Fr2Y1bBtqfcdcF-1" vertex="1">
          <mxGeometry y="120" width="250" height="30" as="geometry" />
        </mxCell>
        <mxCell id="NK5w_5Fr2Y1bBtqfcdcF-12" value="" style="shape=partialRectangle;overflow=hidden;connectable=0;fillColor=#b1ddf0;top=0;left=0;bottom=0;right=0;strokeColor=#10739e;" parent="NK5w_5Fr2Y1bBtqfcdcF-11" vertex="1">
          <mxGeometry width="30" height="30" as="geometry">
            <mxRectangle width="30" height="30" as="alternateBounds" />
          </mxGeometry>
        </mxCell>
        <mxCell id="NK5w_5Fr2Y1bBtqfcdcF-13" value="emp_date_entry DATE NOT NULL" style="shape=partialRectangle;overflow=hidden;connectable=0;fillColor=#b1ddf0;top=0;left=0;bottom=0;right=0;align=left;spacingLeft=6;strokeColor=#10739e;" parent="NK5w_5Fr2Y1bBtqfcdcF-11" vertex="1">
          <mxGeometry x="30" width="220" height="30" as="geometry">
            <mxRectangle width="220" height="30" as="alternateBounds" />
          </mxGeometry>
        </mxCell>
        <mxCell id="NK5w_5Fr2Y1bBtqfcdcF-27" style="shape=partialRectangle;collapsible=0;dropTarget=0;pointerEvents=0;fillColor=none;points=[[0,0.5],[1,0.5]];portConstraint=eastwest;top=0;left=0;right=0;bottom=0;" parent="NK5w_5Fr2Y1bBtqfcdcF-1" vertex="1">
          <mxGeometry y="150" width="250" height="30" as="geometry" />
        </mxCell>
        <mxCell id="NK5w_5Fr2Y1bBtqfcdcF-28" style="shape=partialRectangle;overflow=hidden;connectable=0;fillColor=#b1ddf0;top=0;left=0;bottom=0;right=0;strokeColor=#10739e;" parent="NK5w_5Fr2Y1bBtqfcdcF-27" vertex="1">
          <mxGeometry width="30" height="30" as="geometry">
            <mxRectangle width="30" height="30" as="alternateBounds" />
          </mxGeometry>
        </mxCell>
        <mxCell id="NK5w_5Fr2Y1bBtqfcdcF-29" value="building char(1) NOT NULL" style="shape=partialRectangle;overflow=hidden;connectable=0;fillColor=#b1ddf0;top=0;left=0;bottom=0;right=0;align=left;spacingLeft=6;strokeColor=#10739e;" parent="NK5w_5Fr2Y1bBtqfcdcF-27" vertex="1">
          <mxGeometry x="30" width="220" height="30" as="geometry">
            <mxRectangle width="220" height="30" as="alternateBounds" />
          </mxGeometry>
        </mxCell>
        <mxCell id="NK5w_5Fr2Y1bBtqfcdcF-24" style="shape=partialRectangle;collapsible=0;dropTarget=0;pointerEvents=0;fillColor=none;points=[[0,0.5],[1,0.5]];portConstraint=eastwest;top=0;left=0;right=0;bottom=0;" parent="NK5w_5Fr2Y1bBtqfcdcF-1" vertex="1">
          <mxGeometry y="180" width="250" height="30" as="geometry" />
        </mxCell>
        <mxCell id="NK5w_5Fr2Y1bBtqfcdcF-25" style="shape=partialRectangle;overflow=hidden;connectable=0;fillColor=#b1ddf0;top=0;left=0;bottom=0;right=0;strokeColor=#10739e;" parent="NK5w_5Fr2Y1bBtqfcdcF-24" vertex="1">
          <mxGeometry width="30" height="30" as="geometry">
            <mxRectangle width="30" height="30" as="alternateBounds" />
          </mxGeometry>
        </mxCell>
        <mxCell id="NK5w_5Fr2Y1bBtqfcdcF-26" value="emp_salary Numeric" style="shape=partialRectangle;overflow=hidden;connectable=0;fillColor=#b1ddf0;top=0;left=0;bottom=0;right=0;align=left;spacingLeft=6;strokeColor=#10739e;" parent="NK5w_5Fr2Y1bBtqfcdcF-24" vertex="1">
          <mxGeometry x="30" width="220" height="30" as="geometry">
            <mxRectangle width="220" height="30" as="alternateBounds" />
          </mxGeometry>
        </mxCell>
        <mxCell id="NK5w_5Fr2Y1bBtqfcdcF-21" style="shape=partialRectangle;collapsible=0;dropTarget=0;pointerEvents=0;fillColor=none;points=[[0,0.5],[1,0.5]];portConstraint=eastwest;top=0;left=0;right=0;bottom=0;" parent="NK5w_5Fr2Y1bBtqfcdcF-1" vertex="1">
          <mxGeometry y="210" width="250" height="30" as="geometry" />
        </mxCell>
        <mxCell id="NK5w_5Fr2Y1bBtqfcdcF-22" style="shape=partialRectangle;overflow=hidden;connectable=0;fillColor=#b1ddf0;top=0;left=0;bottom=0;right=0;strokeColor=#10739e;" parent="NK5w_5Fr2Y1bBtqfcdcF-21" vertex="1">
          <mxGeometry width="30" height="30" as="geometry">
            <mxRectangle width="30" height="30" as="alternateBounds" />
          </mxGeometry>
        </mxCell>
        <mxCell id="NK5w_5Fr2Y1bBtqfcdcF-23" value="section varchar(100)  NOT NULL" style="shape=partialRectangle;overflow=hidden;connectable=0;fillColor=#b1ddf0;top=0;left=0;bottom=0;right=0;align=left;spacingLeft=6;strokeColor=#10739e;" parent="NK5w_5Fr2Y1bBtqfcdcF-21" vertex="1">
          <mxGeometry x="30" width="220" height="30" as="geometry">
            <mxRectangle width="220" height="30" as="alternateBounds" />
          </mxGeometry>
        </mxCell>
        <mxCell id="NK5w_5Fr2Y1bBtqfcdcF-33" style="shape=partialRectangle;collapsible=0;dropTarget=0;pointerEvents=0;fillColor=none;points=[[0,0.5],[1,0.5]];portConstraint=eastwest;top=0;left=0;right=0;bottom=0;" parent="NK5w_5Fr2Y1bBtqfcdcF-1" vertex="1">
          <mxGeometry y="240" width="250" height="30" as="geometry" />
        </mxCell>
        <mxCell id="NK5w_5Fr2Y1bBtqfcdcF-34" style="shape=partialRectangle;overflow=hidden;connectable=0;fillColor=#b1ddf0;top=0;left=0;bottom=0;right=0;strokeColor=#10739e;" parent="NK5w_5Fr2Y1bBtqfcdcF-33" vertex="1">
          <mxGeometry width="30" height="30" as="geometry">
            <mxRectangle width="30" height="30" as="alternateBounds" />
          </mxGeometry>
        </mxCell>
        <mxCell id="NK5w_5Fr2Y1bBtqfcdcF-35" value="specialty varchar(300) NOT NULL" style="shape=partialRectangle;overflow=hidden;connectable=0;fillColor=#b1ddf0;top=0;left=0;bottom=0;right=0;align=left;spacingLeft=6;strokeColor=#10739e;" parent="NK5w_5Fr2Y1bBtqfcdcF-33" vertex="1">
          <mxGeometry x="30" width="220" height="30" as="geometry">
            <mxRectangle width="220" height="30" as="alternateBounds" />
          </mxGeometry>
        </mxCell>
        <mxCell id="U6otynBDtJ4fSCat0MDh-1" value="VisitFact" style="shape=table;startSize=30;container=1;collapsible=1;childLayout=tableLayout;fixedRows=1;rowLines=0;fontStyle=1;align=center;resizeLast=1;fillColor=#76608a;strokeColor=#432D57;fontColor=#ffffff;" parent="1" vertex="1">
          <mxGeometry x="700" y="299" width="280" height="302.18750762939453" as="geometry" />
        </mxCell>
        <mxCell id="U6otynBDtJ4fSCat0MDh-2" value="" style="shape=partialRectangle;collapsible=0;dropTarget=0;pointerEvents=0;fillColor=none;points=[[0,0.5],[1,0.5]];portConstraint=eastwest;top=0;left=0;right=0;bottom=1;" parent="U6otynBDtJ4fSCat0MDh-1" vertex="1">
          <mxGeometry y="30" width="280" height="30" as="geometry" />
        </mxCell>
        <mxCell id="U6otynBDtJ4fSCat0MDh-3" value="PK" style="shape=partialRectangle;overflow=hidden;connectable=0;fillColor=#e1d5e7;top=0;left=0;bottom=0;right=0;fontStyle=1;strokeColor=#9673a6;" parent="U6otynBDtJ4fSCat0MDh-2" vertex="1">
          <mxGeometry width="30" height="30" as="geometry">
            <mxRectangle width="30" height="30" as="alternateBounds" />
          </mxGeometry>
        </mxCell>
        <mxCell id="U6otynBDtJ4fSCat0MDh-4" value="visit_id varchar(35) NOT NULL " style="shape=partialRectangle;overflow=hidden;connectable=0;fillColor=#e1d5e7;top=0;left=0;bottom=0;right=0;align=left;spacingLeft=6;fontStyle=5;strokeColor=#9673a6;" parent="U6otynBDtJ4fSCat0MDh-2" vertex="1">
          <mxGeometry x="30" width="250" height="30" as="geometry">
            <mxRectangle width="250" height="30" as="alternateBounds" />
          </mxGeometry>
        </mxCell>
        <mxCell id="U6otynBDtJ4fSCat0MDh-5" value="" style="shape=partialRectangle;collapsible=0;dropTarget=0;pointerEvents=0;fillColor=none;points=[[0,0.5],[1,0.5]];portConstraint=eastwest;top=0;left=0;right=0;bottom=0;" parent="U6otynBDtJ4fSCat0MDh-1" vertex="1">
          <mxGeometry y="60" width="280" height="32" as="geometry" />
        </mxCell>
        <mxCell id="U6otynBDtJ4fSCat0MDh-6" value="FK1" style="shape=partialRectangle;overflow=hidden;connectable=0;fillColor=#e1d5e7;top=0;left=0;bottom=0;right=0;strokeColor=#9673a6;" parent="U6otynBDtJ4fSCat0MDh-5" vertex="1">
          <mxGeometry width="30" height="32" as="geometry">
            <mxRectangle width="30" height="32" as="alternateBounds" />
          </mxGeometry>
        </mxCell>
        <mxCell id="U6otynBDtJ4fSCat0MDh-7" value="patient_dim_id varchar(30) NOT NULL" style="shape=partialRectangle;overflow=hidden;connectable=0;fillColor=#e1d5e7;top=0;left=0;bottom=0;right=0;align=left;spacingLeft=6;strokeColor=#9673a6;" parent="U6otynBDtJ4fSCat0MDh-5" vertex="1">
          <mxGeometry x="30" width="250" height="32" as="geometry">
            <mxRectangle width="250" height="32" as="alternateBounds" />
          </mxGeometry>
        </mxCell>
        <mxCell id="U6otynBDtJ4fSCat0MDh-8" value="" style="shape=partialRectangle;collapsible=0;dropTarget=0;pointerEvents=0;fillColor=none;points=[[0,0.5],[1,0.5]];portConstraint=eastwest;top=0;left=0;right=0;bottom=0;" parent="U6otynBDtJ4fSCat0MDh-1" vertex="1">
          <mxGeometry y="92" width="280" height="30" as="geometry" />
        </mxCell>
        <mxCell id="U6otynBDtJ4fSCat0MDh-9" value="FK2" style="shape=partialRectangle;overflow=hidden;connectable=0;fillColor=#e1d5e7;top=0;left=0;bottom=0;right=0;strokeColor=#9673a6;" parent="U6otynBDtJ4fSCat0MDh-8" vertex="1">
          <mxGeometry width="30" height="30" as="geometry">
            <mxRectangle width="30" height="30" as="alternateBounds" />
          </mxGeometry>
        </mxCell>
        <mxCell id="U6otynBDtJ4fSCat0MDh-10" value="procedure_dim_id varchar(20) NOT NULL" style="shape=partialRectangle;overflow=hidden;connectable=0;fillColor=#e1d5e7;top=0;left=0;bottom=0;right=0;align=left;spacingLeft=6;strokeColor=#9673a6;" parent="U6otynBDtJ4fSCat0MDh-8" vertex="1">
          <mxGeometry x="30" width="250" height="30" as="geometry">
            <mxRectangle width="250" height="30" as="alternateBounds" />
          </mxGeometry>
        </mxCell>
        <mxCell id="U6otynBDtJ4fSCat0MDh-11" style="shape=partialRectangle;collapsible=0;dropTarget=0;pointerEvents=0;fillColor=none;points=[[0,0.5],[1,0.5]];portConstraint=eastwest;top=0;left=0;right=0;bottom=0;" parent="U6otynBDtJ4fSCat0MDh-1" vertex="1">
          <mxGeometry y="122" width="280" height="30" as="geometry" />
        </mxCell>
        <mxCell id="U6otynBDtJ4fSCat0MDh-12" value="FK3" style="shape=partialRectangle;overflow=hidden;connectable=0;fillColor=#e1d5e7;top=0;left=0;bottom=0;right=0;strokeColor=#9673a6;" parent="U6otynBDtJ4fSCat0MDh-11" vertex="1">
          <mxGeometry width="30" height="30" as="geometry">
            <mxRectangle width="30" height="30" as="alternateBounds" />
          </mxGeometry>
        </mxCell>
        <mxCell id="U6otynBDtJ4fSCat0MDh-13" value="health_facility_dim_id_fac int NOT NULL" style="shape=partialRectangle;overflow=hidden;connectable=0;fillColor=#e1d5e7;top=0;left=0;bottom=0;right=0;align=left;spacingLeft=6;strokeColor=#9673a6;" parent="U6otynBDtJ4fSCat0MDh-11" vertex="1">
          <mxGeometry x="30" width="250" height="30" as="geometry">
            <mxRectangle width="250" height="30" as="alternateBounds" />
          </mxGeometry>
        </mxCell>
        <mxCell id="7_M2ChFBNRYxlzYL1yKz-1" style="shape=partialRectangle;collapsible=0;dropTarget=0;pointerEvents=0;fillColor=none;points=[[0,0.5],[1,0.5]];portConstraint=eastwest;top=0;left=0;right=0;bottom=0;" parent="U6otynBDtJ4fSCat0MDh-1" vertex="1">
          <mxGeometry y="152" width="280" height="30" as="geometry" />
        </mxCell>
        <mxCell id="7_M2ChFBNRYxlzYL1yKz-2" value="Fk3" style="shape=partialRectangle;overflow=hidden;connectable=0;fillColor=#e1d5e7;top=0;left=0;bottom=0;right=0;strokeColor=#9673a6;" parent="7_M2ChFBNRYxlzYL1yKz-1" vertex="1">
          <mxGeometry width="30" height="30" as="geometry">
            <mxRectangle width="30" height="30" as="alternateBounds" />
          </mxGeometry>
        </mxCell>
        <mxCell id="7_M2ChFBNRYxlzYL1yKz-3" value="health_facility_dim_id_loc int NOT NULL" style="shape=partialRectangle;overflow=hidden;connectable=0;fillColor=#e1d5e7;top=0;left=0;bottom=0;right=0;align=left;spacingLeft=6;strokeColor=#9673a6;" parent="7_M2ChFBNRYxlzYL1yKz-1" vertex="1">
          <mxGeometry x="30" width="250" height="30" as="geometry">
            <mxRectangle width="250" height="30" as="alternateBounds" />
          </mxGeometry>
        </mxCell>
        <mxCell id="U6otynBDtJ4fSCat0MDh-14" style="shape=partialRectangle;collapsible=0;dropTarget=0;pointerEvents=0;fillColor=none;points=[[0,0.5],[1,0.5]];portConstraint=eastwest;top=0;left=0;right=0;bottom=0;" parent="U6otynBDtJ4fSCat0MDh-1" vertex="1">
          <mxGeometry y="182" width="280" height="30" as="geometry" />
        </mxCell>
        <mxCell id="U6otynBDtJ4fSCat0MDh-15" style="shape=partialRectangle;overflow=hidden;connectable=0;fillColor=#e1d5e7;top=0;left=0;bottom=0;right=0;strokeColor=#9673a6;" parent="U6otynBDtJ4fSCat0MDh-14" vertex="1">
          <mxGeometry width="30" height="30" as="geometry">
            <mxRectangle width="30" height="30" as="alternateBounds" />
          </mxGeometry>
        </mxCell>
        <mxCell id="U6otynBDtJ4fSCat0MDh-16" value="visit_date date NOT NULL" style="shape=partialRectangle;overflow=hidden;connectable=0;fillColor=#e1d5e7;top=0;left=0;bottom=0;right=0;align=left;spacingLeft=6;strokeColor=#9673a6;" parent="U6otynBDtJ4fSCat0MDh-14" vertex="1">
          <mxGeometry x="30" width="250" height="30" as="geometry">
            <mxRectangle width="250" height="30" as="alternateBounds" />
          </mxGeometry>
        </mxCell>
        <mxCell id="U6otynBDtJ4fSCat0MDh-17" style="shape=partialRectangle;collapsible=0;dropTarget=0;pointerEvents=0;fillColor=none;points=[[0,0.5],[1,0.5]];portConstraint=eastwest;top=0;left=0;right=0;bottom=0;" parent="U6otynBDtJ4fSCat0MDh-1" vertex="1">
          <mxGeometry y="212" width="280" height="30" as="geometry" />
        </mxCell>
        <mxCell id="U6otynBDtJ4fSCat0MDh-18" value="FK4" style="shape=partialRectangle;overflow=hidden;connectable=0;fillColor=#e1d5e7;top=0;left=0;bottom=0;right=0;strokeColor=#9673a6;" parent="U6otynBDtJ4fSCat0MDh-17" vertex="1">
          <mxGeometry width="30" height="30" as="geometry">
            <mxRectangle width="30" height="30" as="alternateBounds" />
          </mxGeometry>
        </mxCell>
        <mxCell id="U6otynBDtJ4fSCat0MDh-19" value="employee_dim_id varchar(30) NOT NULL" style="shape=partialRectangle;overflow=hidden;connectable=0;fillColor=#e1d5e7;top=0;left=0;bottom=0;right=0;align=left;spacingLeft=6;strokeColor=#9673a6;" parent="U6otynBDtJ4fSCat0MDh-17" vertex="1">
          <mxGeometry x="30" width="250" height="30" as="geometry">
            <mxRectangle width="250" height="30" as="alternateBounds" />
          </mxGeometry>
        </mxCell>
        <mxCell id="_SrAaY6M1NSKKokZXSFg-1" style="shape=partialRectangle;collapsible=0;dropTarget=0;pointerEvents=0;fillColor=none;points=[[0,0.5],[1,0.5]];portConstraint=eastwest;top=0;left=0;right=0;bottom=0;" parent="U6otynBDtJ4fSCat0MDh-1" vertex="1">
          <mxGeometry y="242" width="280" height="30" as="geometry" />
        </mxCell>
        <mxCell id="_SrAaY6M1NSKKokZXSFg-2" style="shape=partialRectangle;overflow=hidden;connectable=0;fillColor=#e1d5e7;top=0;left=0;bottom=0;right=0;strokeColor=#9673a6;" parent="_SrAaY6M1NSKKokZXSFg-1" vertex="1">
          <mxGeometry width="30" height="30" as="geometry">
            <mxRectangle width="30" height="30" as="alternateBounds" />
          </mxGeometry>
        </mxCell>
        <mxCell id="_SrAaY6M1NSKKokZXSFg-3" value="payment Numeric" style="shape=partialRectangle;overflow=hidden;connectable=0;fillColor=#e1d5e7;top=0;left=0;bottom=0;right=0;align=left;spacingLeft=6;strokeColor=#9673a6;" parent="_SrAaY6M1NSKKokZXSFg-1" vertex="1">
          <mxGeometry x="30" width="250" height="30" as="geometry">
            <mxRectangle width="250" height="30" as="alternateBounds" />
          </mxGeometry>
        </mxCell>
        <mxCell id="U6otynBDtJ4fSCat0MDh-20" style="shape=partialRectangle;collapsible=0;dropTarget=0;pointerEvents=0;fillColor=none;points=[[0,0.5],[1,0.5]];portConstraint=eastwest;top=0;left=0;right=0;bottom=0;" parent="U6otynBDtJ4fSCat0MDh-1" vertex="1">
          <mxGeometry y="272" width="280" height="30" as="geometry" />
        </mxCell>
        <mxCell id="U6otynBDtJ4fSCat0MDh-21" style="shape=partialRectangle;overflow=hidden;connectable=0;fillColor=#e1d5e7;top=0;left=0;bottom=0;right=0;strokeColor=#9673a6;" parent="U6otynBDtJ4fSCat0MDh-20" vertex="1">
          <mxGeometry width="30" height="30" as="geometry">
            <mxRectangle width="30" height="30" as="alternateBounds" />
          </mxGeometry>
        </mxCell>
        <mxCell id="U6otynBDtJ4fSCat0MDh-22" value="rating int NOT NULL" style="shape=partialRectangle;overflow=hidden;connectable=0;fillColor=#e1d5e7;top=0;left=0;bottom=0;right=0;align=left;spacingLeft=6;strokeColor=#9673a6;" parent="U6otynBDtJ4fSCat0MDh-20" vertex="1">
          <mxGeometry x="30" width="250" height="30" as="geometry">
            <mxRectangle width="250" height="30" as="alternateBounds" />
          </mxGeometry>
        </mxCell>
        <mxCell id="U6otynBDtJ4fSCat0MDh-54" value="" style="edgeStyle=elbowEdgeStyle;endArrow=ERzeroToMany;startArrow=ERone;endFill=1;startFill=0;exitX=0;exitY=0.5;exitDx=0;exitDy=0;entryX=1;entryY=0.5;entryDx=0;entryDy=0;" parent="1" source="NK5w_5Fr2Y1bBtqfcdcF-2" target="U6otynBDtJ4fSCat0MDh-17" edge="1">
          <mxGeometry width="100" height="100" relative="1" as="geometry">
            <mxPoint x="619" y="569" as="sourcePoint" />
            <mxPoint x="739" y="699" as="targetPoint" />
          </mxGeometry>
        </mxCell>
        <mxCell id="U6otynBDtJ4fSCat0MDh-82" value="" style="edgeStyle=elbowEdgeStyle;endArrow=ERzeroToMany;startArrow=ERone;endFill=1;startFill=0;entryX=0;entryY=0.5;entryDx=0;entryDy=0;exitX=1;exitY=0.5;exitDx=0;exitDy=0;" parent="1" source="U6otynBDtJ4fSCat0MDh-86" target="U6otynBDtJ4fSCat0MDh-11" edge="1">
          <mxGeometry width="100" height="100" relative="1" as="geometry">
            <mxPoint x="879" y="809" as="sourcePoint" />
            <mxPoint x="969" y="609" as="targetPoint" />
            <Array as="points">
              <mxPoint x="649" y="409" />
            </Array>
          </mxGeometry>
        </mxCell>
        <mxCell id="U6otynBDtJ4fSCat0MDh-91" value="HealthFacilityAdditionalDim" style="shape=table;startSize=30;container=1;collapsible=1;childLayout=tableLayout;fixedRows=1;rowLines=0;fontStyle=1;align=center;resizeLast=1;fillColor=#1ba1e2;fontColor=#ffffff;strokeColor=#006EAF;" parent="1" vertex="1">
          <mxGeometry x="289" y="599" width="380" height="330" as="geometry" />
        </mxCell>
        <mxCell id="U6otynBDtJ4fSCat0MDh-92" value="" style="shape=partialRectangle;collapsible=0;dropTarget=0;pointerEvents=0;fillColor=none;points=[[0,0.5],[1,0.5]];portConstraint=eastwest;top=0;left=0;right=0;bottom=1;" parent="U6otynBDtJ4fSCat0MDh-91" vertex="1">
          <mxGeometry y="30" width="380" height="30" as="geometry" />
        </mxCell>
        <mxCell id="U6otynBDtJ4fSCat0MDh-93" value="PK + FK" style="shape=partialRectangle;overflow=hidden;connectable=0;fillColor=#b1ddf0;top=0;left=0;bottom=0;right=0;fontStyle=1;strokeColor=#10739e;" parent="U6otynBDtJ4fSCat0MDh-92" vertex="1">
          <mxGeometry width="60" height="30" as="geometry">
            <mxRectangle width="60" height="30" as="alternateBounds" />
          </mxGeometry>
        </mxCell>
        <mxCell id="U6otynBDtJ4fSCat0MDh-94" value="h_additional_id_loc int NOT NULL " style="shape=partialRectangle;overflow=hidden;connectable=0;fillColor=#b1ddf0;top=0;left=0;bottom=0;right=0;align=left;spacingLeft=6;fontStyle=5;strokeColor=#10739e;" parent="U6otynBDtJ4fSCat0MDh-92" vertex="1">
          <mxGeometry x="60" width="320" height="30" as="geometry">
            <mxRectangle width="320" height="30" as="alternateBounds" />
          </mxGeometry>
        </mxCell>
        <mxCell id="7_M2ChFBNRYxlzYL1yKz-5" style="shape=partialRectangle;collapsible=0;dropTarget=0;pointerEvents=0;fillColor=none;points=[[0,0.5],[1,0.5]];portConstraint=eastwest;top=0;left=0;right=0;bottom=1;" parent="U6otynBDtJ4fSCat0MDh-91" vertex="1">
          <mxGeometry y="60" width="380" height="30" as="geometry" />
        </mxCell>
        <mxCell id="7_M2ChFBNRYxlzYL1yKz-6" value="PK + FK" style="shape=partialRectangle;overflow=hidden;connectable=0;fillColor=#b1ddf0;top=0;left=0;bottom=0;right=0;fontStyle=1;strokeColor=#10739e;" parent="7_M2ChFBNRYxlzYL1yKz-5" vertex="1">
          <mxGeometry width="60" height="30" as="geometry">
            <mxRectangle width="60" height="30" as="alternateBounds" />
          </mxGeometry>
        </mxCell>
        <mxCell id="7_M2ChFBNRYxlzYL1yKz-7" value="h_additional_id_fac int NOT NULL" style="shape=partialRectangle;overflow=hidden;connectable=0;fillColor=#b1ddf0;top=0;left=0;bottom=0;right=0;align=left;spacingLeft=6;fontStyle=5;strokeColor=#10739e;" parent="7_M2ChFBNRYxlzYL1yKz-5" vertex="1">
          <mxGeometry x="60" width="320" height="30" as="geometry">
            <mxRectangle width="320" height="30" as="alternateBounds" />
          </mxGeometry>
        </mxCell>
        <mxCell id="U6otynBDtJ4fSCat0MDh-101" value="" style="shape=partialRectangle;collapsible=0;dropTarget=0;pointerEvents=0;fillColor=none;points=[[0,0.5],[1,0.5]];portConstraint=eastwest;top=0;left=0;right=0;bottom=0;" parent="U6otynBDtJ4fSCat0MDh-91" vertex="1">
          <mxGeometry y="90" width="380" height="30" as="geometry" />
        </mxCell>
        <mxCell id="U6otynBDtJ4fSCat0MDh-102" value="" style="shape=partialRectangle;overflow=hidden;connectable=0;fillColor=#b1ddf0;top=0;left=0;bottom=0;right=0;strokeColor=#10739e;" parent="U6otynBDtJ4fSCat0MDh-101" vertex="1">
          <mxGeometry width="60" height="30" as="geometry">
            <mxRectangle width="60" height="30" as="alternateBounds" />
          </mxGeometry>
        </mxCell>
        <mxCell id="U6otynBDtJ4fSCat0MDh-103" value="oshpd_id int" style="shape=partialRectangle;overflow=hidden;connectable=0;fillColor=#b1ddf0;top=0;left=0;bottom=0;right=0;align=left;spacingLeft=6;strokeColor=#10739e;" parent="U6otynBDtJ4fSCat0MDh-101" vertex="1">
          <mxGeometry x="60" width="320" height="30" as="geometry">
            <mxRectangle width="320" height="30" as="alternateBounds" />
          </mxGeometry>
        </mxCell>
        <mxCell id="U6otynBDtJ4fSCat0MDh-119" style="shape=partialRectangle;collapsible=0;dropTarget=0;pointerEvents=0;fillColor=none;points=[[0,0.5],[1,0.5]];portConstraint=eastwest;top=0;left=0;right=0;bottom=0;" parent="U6otynBDtJ4fSCat0MDh-91" vertex="1">
          <mxGeometry y="120" width="380" height="30" as="geometry" />
        </mxCell>
        <mxCell id="U6otynBDtJ4fSCat0MDh-120" style="shape=partialRectangle;overflow=hidden;connectable=0;fillColor=#b1ddf0;top=0;left=0;bottom=0;right=0;strokeColor=#10739e;" parent="U6otynBDtJ4fSCat0MDh-119" vertex="1">
          <mxGeometry width="60" height="30" as="geometry">
            <mxRectangle width="60" height="30" as="alternateBounds" />
          </mxGeometry>
        </mxCell>
        <mxCell id="U6otynBDtJ4fSCat0MDh-121" value="congressional_district_num int" style="shape=partialRectangle;overflow=hidden;connectable=0;fillColor=#b1ddf0;top=0;left=0;bottom=0;right=0;align=left;spacingLeft=6;strokeColor=#10739e;" parent="U6otynBDtJ4fSCat0MDh-119" vertex="1">
          <mxGeometry x="60" width="320" height="30" as="geometry">
            <mxRectangle width="320" height="30" as="alternateBounds" />
          </mxGeometry>
        </mxCell>
        <mxCell id="U6otynBDtJ4fSCat0MDh-122" style="shape=partialRectangle;collapsible=0;dropTarget=0;pointerEvents=0;fillColor=none;points=[[0,0.5],[1,0.5]];portConstraint=eastwest;top=0;left=0;right=0;bottom=0;" parent="U6otynBDtJ4fSCat0MDh-91" vertex="1">
          <mxGeometry y="150" width="380" height="30" as="geometry" />
        </mxCell>
        <mxCell id="U6otynBDtJ4fSCat0MDh-123" style="shape=partialRectangle;overflow=hidden;connectable=0;fillColor=#b1ddf0;top=0;left=0;bottom=0;right=0;strokeColor=#10739e;" parent="U6otynBDtJ4fSCat0MDh-122" vertex="1">
          <mxGeometry width="60" height="30" as="geometry">
            <mxRectangle width="60" height="30" as="alternateBounds" />
          </mxGeometry>
        </mxCell>
        <mxCell id="U6otynBDtJ4fSCat0MDh-124" value="senate_district_num int" style="shape=partialRectangle;overflow=hidden;connectable=0;fillColor=#b1ddf0;top=0;left=0;bottom=0;right=0;align=left;spacingLeft=6;strokeColor=#10739e;" parent="U6otynBDtJ4fSCat0MDh-122" vertex="1">
          <mxGeometry x="60" width="320" height="30" as="geometry">
            <mxRectangle width="320" height="30" as="alternateBounds" />
          </mxGeometry>
        </mxCell>
        <mxCell id="U6otynBDtJ4fSCat0MDh-125" style="shape=partialRectangle;collapsible=0;dropTarget=0;pointerEvents=0;fillColor=none;points=[[0,0.5],[1,0.5]];portConstraint=eastwest;top=0;left=0;right=0;bottom=0;" parent="U6otynBDtJ4fSCat0MDh-91" vertex="1">
          <mxGeometry y="180" width="380" height="30" as="geometry" />
        </mxCell>
        <mxCell id="U6otynBDtJ4fSCat0MDh-126" style="shape=partialRectangle;overflow=hidden;connectable=0;fillColor=#b1ddf0;top=0;left=0;bottom=0;right=0;strokeColor=#10739e;" parent="U6otynBDtJ4fSCat0MDh-125" vertex="1">
          <mxGeometry width="60" height="30" as="geometry">
            <mxRectangle width="60" height="30" as="alternateBounds" />
          </mxGeometry>
        </mxCell>
        <mxCell id="U6otynBDtJ4fSCat0MDh-127" value="assembly_district_num int" style="shape=partialRectangle;overflow=hidden;connectable=0;fillColor=#b1ddf0;top=0;left=0;bottom=0;right=0;align=left;spacingLeft=6;strokeColor=#10739e;" parent="U6otynBDtJ4fSCat0MDh-125" vertex="1">
          <mxGeometry x="60" width="320" height="30" as="geometry">
            <mxRectangle width="320" height="30" as="alternateBounds" />
          </mxGeometry>
        </mxCell>
        <mxCell id="U6otynBDtJ4fSCat0MDh-128" style="shape=partialRectangle;collapsible=0;dropTarget=0;pointerEvents=0;fillColor=none;points=[[0,0.5],[1,0.5]];portConstraint=eastwest;top=0;left=0;right=0;bottom=0;" parent="U6otynBDtJ4fSCat0MDh-91" vertex="1">
          <mxGeometry y="210" width="380" height="30" as="geometry" />
        </mxCell>
        <mxCell id="U6otynBDtJ4fSCat0MDh-129" style="shape=partialRectangle;overflow=hidden;connectable=0;fillColor=#b1ddf0;top=0;left=0;bottom=0;right=0;strokeColor=#10739e;" parent="U6otynBDtJ4fSCat0MDh-128" vertex="1">
          <mxGeometry width="60" height="30" as="geometry">
            <mxRectangle width="60" height="30" as="alternateBounds" />
          </mxGeometry>
        </mxCell>
        <mxCell id="U6otynBDtJ4fSCat0MDh-130" value="control_type_desc varchar(250) NOT NULL" style="shape=partialRectangle;overflow=hidden;connectable=0;fillColor=#b1ddf0;top=0;left=0;bottom=0;right=0;align=left;spacingLeft=6;strokeColor=#10739e;" parent="U6otynBDtJ4fSCat0MDh-128" vertex="1">
          <mxGeometry x="60" width="320" height="30" as="geometry">
            <mxRectangle width="320" height="30" as="alternateBounds" />
          </mxGeometry>
        </mxCell>
        <mxCell id="U6otynBDtJ4fSCat0MDh-131" style="shape=partialRectangle;collapsible=0;dropTarget=0;pointerEvents=0;fillColor=none;points=[[0,0.5],[1,0.5]];portConstraint=eastwest;top=0;left=0;right=0;bottom=0;" parent="U6otynBDtJ4fSCat0MDh-91" vertex="1">
          <mxGeometry y="240" width="380" height="30" as="geometry" />
        </mxCell>
        <mxCell id="U6otynBDtJ4fSCat0MDh-132" style="shape=partialRectangle;overflow=hidden;connectable=0;fillColor=#b1ddf0;top=0;left=0;bottom=0;right=0;strokeColor=#10739e;" parent="U6otynBDtJ4fSCat0MDh-131" vertex="1">
          <mxGeometry width="60" height="30" as="geometry">
            <mxRectangle width="60" height="30" as="alternateBounds" />
          </mxGeometry>
        </mxCell>
        <mxCell id="U6otynBDtJ4fSCat0MDh-133" value="control_type_category_desc varchar(100) NOT NULL" style="shape=partialRectangle;overflow=hidden;connectable=0;fillColor=#b1ddf0;top=0;left=0;bottom=0;right=0;align=left;spacingLeft=6;strokeColor=#10739e;" parent="U6otynBDtJ4fSCat0MDh-131" vertex="1">
          <mxGeometry x="60" width="320" height="30" as="geometry">
            <mxRectangle width="320" height="30" as="alternateBounds" />
          </mxGeometry>
        </mxCell>
        <mxCell id="U6otynBDtJ4fSCat0MDh-134" style="shape=partialRectangle;collapsible=0;dropTarget=0;pointerEvents=0;fillColor=none;points=[[0,0.5],[1,0.5]];portConstraint=eastwest;top=0;left=0;right=0;bottom=0;" parent="U6otynBDtJ4fSCat0MDh-91" vertex="1">
          <mxGeometry y="270" width="380" height="30" as="geometry" />
        </mxCell>
        <mxCell id="U6otynBDtJ4fSCat0MDh-135" style="shape=partialRectangle;overflow=hidden;connectable=0;fillColor=#b1ddf0;top=0;left=0;bottom=0;right=0;strokeColor=#10739e;" parent="U6otynBDtJ4fSCat0MDh-134" vertex="1">
          <mxGeometry width="60" height="30" as="geometry">
            <mxRectangle width="60" height="30" as="alternateBounds" />
          </mxGeometry>
        </mxCell>
        <mxCell id="U6otynBDtJ4fSCat0MDh-136" value="mssa_name VARCHAR(200)" style="shape=partialRectangle;overflow=hidden;connectable=0;fillColor=#b1ddf0;top=0;left=0;bottom=0;right=0;align=left;spacingLeft=6;strokeColor=#10739e;" parent="U6otynBDtJ4fSCat0MDh-134" vertex="1">
          <mxGeometry x="60" width="320" height="30" as="geometry">
            <mxRectangle width="320" height="30" as="alternateBounds" />
          </mxGeometry>
        </mxCell>
        <mxCell id="U6otynBDtJ4fSCat0MDh-137" style="shape=partialRectangle;collapsible=0;dropTarget=0;pointerEvents=0;fillColor=none;points=[[0,0.5],[1,0.5]];portConstraint=eastwest;top=0;left=0;right=0;bottom=0;" parent="U6otynBDtJ4fSCat0MDh-91" vertex="1">
          <mxGeometry y="300" width="380" height="30" as="geometry" />
        </mxCell>
        <mxCell id="U6otynBDtJ4fSCat0MDh-138" style="shape=partialRectangle;overflow=hidden;connectable=0;fillColor=#b1ddf0;top=0;left=0;bottom=0;right=0;strokeColor=#10739e;" parent="U6otynBDtJ4fSCat0MDh-137" vertex="1">
          <mxGeometry width="60" height="30" as="geometry">
            <mxRectangle width="60" height="30" as="alternateBounds" />
          </mxGeometry>
        </mxCell>
        <mxCell id="U6otynBDtJ4fSCat0MDh-139" value="mssa_designation varchar(50)" style="shape=partialRectangle;overflow=hidden;connectable=0;fillColor=#b1ddf0;top=0;left=0;bottom=0;right=0;align=left;spacingLeft=6;strokeColor=#10739e;" parent="U6otynBDtJ4fSCat0MDh-137" vertex="1">
          <mxGeometry x="60" width="320" height="30" as="geometry">
            <mxRectangle width="320" height="30" as="alternateBounds" />
          </mxGeometry>
        </mxCell>
        <mxCell id="U6otynBDtJ4fSCat0MDh-143" value="" style="edgeStyle=elbowEdgeStyle;fontSize=12;html=1;endArrow=ERmandOne;startArrow=ERmandOne;rounded=1;entryX=-0.007;entryY=0.269;entryDx=0;entryDy=0;entryPerimeter=0;exitX=0;exitY=0.5;exitDx=0;exitDy=0;" parent="1" source="U6otynBDtJ4fSCat0MDh-92" target="U6otynBDtJ4fSCat0MDh-55" edge="1">
          <mxGeometry width="100" height="100" relative="1" as="geometry">
            <mxPoint x="469" y="689" as="sourcePoint" />
            <mxPoint x="259" y="429" as="targetPoint" />
            <Array as="points">
              <mxPoint x="239" y="509" />
            </Array>
          </mxGeometry>
        </mxCell>
        <mxCell id="7_M2ChFBNRYxlzYL1yKz-4" value="" style="edgeStyle=elbowEdgeStyle;endArrow=ERzeroToMany;startArrow=ERone;endFill=1;startFill=0;exitX=1;exitY=0.5;exitDx=0;exitDy=0;" parent="1" source="U6otynBDtJ4fSCat0MDh-55" target="7_M2ChFBNRYxlzYL1yKz-1" edge="1">
          <mxGeometry width="100" height="100" relative="1" as="geometry">
            <mxPoint x="629" y="369" as="sourcePoint" />
            <mxPoint x="700" y="469" as="targetPoint" />
            <Array as="points">
              <mxPoint x="659" y="419" />
            </Array>
          </mxGeometry>
        </mxCell>
        <mxCell id="7_M2ChFBNRYxlzYL1yKz-9" value="" style="edgeStyle=elbowEdgeStyle;fontSize=12;html=1;endArrow=ERmandOne;startArrow=ERmandOne;rounded=1;entryX=0;entryY=0.5;entryDx=0;entryDy=0;exitX=0;exitY=0.5;exitDx=0;exitDy=0;" parent="1" source="7_M2ChFBNRYxlzYL1yKz-5" target="U6otynBDtJ4fSCat0MDh-86" edge="1">
          <mxGeometry width="100" height="100" relative="1" as="geometry">
            <mxPoint x="539" y="736" as="sourcePoint" />
            <mxPoint x="287" y="389" as="targetPoint" />
            <Array as="points">
              <mxPoint x="249" y="571" />
            </Array>
          </mxGeometry>
        </mxCell>
      </root>
    </mxGraphModel>
  </diagram>
</mxfile>
